<mxfile host="app.diagrams.net" modified="2024-01-30T17:30:38.535Z" agent="Mozilla/5.0 (Windows NT 10.0; Win64; x64; rv:122.0) Gecko/20100101 Firefox/122.0" etag="gt6CmeMl1Jv6dGIBRZJC" version="23.0.2" type="device">
  <diagram name="Página-1" id="9Cd_RJLeHYbFE1E5Aopb">
    <mxGraphModel dx="2049" dy="1066" grid="1" gridSize="10" guides="1" tooltips="1" connect="1" arrows="1" fold="1" page="1" pageScale="1" pageWidth="827" pageHeight="1169" math="0" shadow="0">
      <root>
        <mxCell id="0" />
        <mxCell id="1" parent="0" />
        <mxCell id="86nlOH5YFRba5CuwzKjF-4" value="" style="rounded=0;whiteSpace=wrap;html=1;fillColor=none;" vertex="1" parent="1">
          <mxGeometry x="40" y="170" width="1480" height="790" as="geometry" />
        </mxCell>
        <mxCell id="86nlOH5YFRba5CuwzKjF-2" value="" style="ellipse;html=1;shape=startState;fillColor=#000000;strokeColor=#2B0000;" vertex="1" parent="1">
          <mxGeometry x="186" y="105" width="30" height="30" as="geometry" />
        </mxCell>
        <mxCell id="86nlOH5YFRba5CuwzKjF-3" value="" style="edgeStyle=orthogonalEdgeStyle;html=1;verticalAlign=bottom;endArrow=open;endSize=8;strokeColor=#000000;rounded=0;" edge="1" source="86nlOH5YFRba5CuwzKjF-2" parent="1" target="86nlOH5YFRba5CuwzKjF-5">
          <mxGeometry relative="1" as="geometry">
            <mxPoint x="210" y="200" as="targetPoint" />
          </mxGeometry>
        </mxCell>
        <mxCell id="86nlOH5YFRba5CuwzKjF-7" style="edgeStyle=orthogonalEdgeStyle;rounded=0;orthogonalLoop=1;jettySize=auto;html=1;" edge="1" parent="1" source="86nlOH5YFRba5CuwzKjF-5" target="86nlOH5YFRba5CuwzKjF-6">
          <mxGeometry relative="1" as="geometry" />
        </mxCell>
        <mxCell id="86nlOH5YFRba5CuwzKjF-54" style="edgeStyle=orthogonalEdgeStyle;rounded=0;orthogonalLoop=1;jettySize=auto;html=1;entryX=0.5;entryY=0;entryDx=0;entryDy=0;" edge="1" parent="1" source="86nlOH5YFRba5CuwzKjF-5" target="86nlOH5YFRba5CuwzKjF-50">
          <mxGeometry relative="1" as="geometry" />
        </mxCell>
        <mxCell id="86nlOH5YFRba5CuwzKjF-5" value="idUsuario nulo ou vazio?" style="rhombus;whiteSpace=wrap;html=1;" vertex="1" parent="1">
          <mxGeometry x="86" y="240" width="230" height="80" as="geometry" />
        </mxCell>
        <mxCell id="86nlOH5YFRba5CuwzKjF-28" style="edgeStyle=orthogonalEdgeStyle;rounded=0;orthogonalLoop=1;jettySize=auto;html=1;" edge="1" parent="1" source="86nlOH5YFRba5CuwzKjF-6" target="86nlOH5YFRba5CuwzKjF-15">
          <mxGeometry relative="1" as="geometry" />
        </mxCell>
        <mxCell id="86nlOH5YFRba5CuwzKjF-6" value="Lança exceção argumento nulo" style="rounded=1;whiteSpace=wrap;html=1;" vertex="1" parent="1">
          <mxGeometry x="410" y="250" width="120" height="60" as="geometry" />
        </mxCell>
        <mxCell id="86nlOH5YFRba5CuwzKjF-9" value="Não" style="text;html=1;strokeColor=none;fillColor=none;align=center;verticalAlign=middle;whiteSpace=wrap;rounded=0;" vertex="1" parent="1">
          <mxGeometry x="141" y="320" width="50" height="30" as="geometry" />
        </mxCell>
        <mxCell id="86nlOH5YFRba5CuwzKjF-48" style="edgeStyle=orthogonalEdgeStyle;rounded=0;orthogonalLoop=1;jettySize=auto;html=1;" edge="1" parent="1" source="86nlOH5YFRba5CuwzKjF-11" target="86nlOH5YFRba5CuwzKjF-13">
          <mxGeometry relative="1" as="geometry" />
        </mxCell>
        <mxCell id="86nlOH5YFRba5CuwzKjF-68" style="edgeStyle=orthogonalEdgeStyle;rounded=0;orthogonalLoop=1;jettySize=auto;html=1;entryX=0;entryY=0.5;entryDx=0;entryDy=0;" edge="1" parent="1" source="86nlOH5YFRba5CuwzKjF-19" target="86nlOH5YFRba5CuwzKjF-20">
          <mxGeometry relative="1" as="geometry">
            <Array as="points">
              <mxPoint x="210" y="880" />
            </Array>
          </mxGeometry>
        </mxCell>
        <mxCell id="86nlOH5YFRba5CuwzKjF-90" style="edgeStyle=orthogonalEdgeStyle;rounded=0;orthogonalLoop=1;jettySize=auto;html=1;" edge="1" parent="1" source="86nlOH5YFRba5CuwzKjF-11" target="86nlOH5YFRba5CuwzKjF-19">
          <mxGeometry relative="1" as="geometry" />
        </mxCell>
        <mxCell id="86nlOH5YFRba5CuwzKjF-11" value="&lt;div&gt;Usuário Autenticado?&lt;/div&gt;&lt;div&gt;(HttpContext)&lt;br&gt;&lt;/div&gt;" style="rhombus;whiteSpace=wrap;html=1;" vertex="1" parent="1">
          <mxGeometry x="113.5" y="702" width="175" height="80" as="geometry" />
        </mxCell>
        <mxCell id="86nlOH5YFRba5CuwzKjF-16" style="edgeStyle=orthogonalEdgeStyle;rounded=0;orthogonalLoop=1;jettySize=auto;html=1;" edge="1" parent="1" source="86nlOH5YFRba5CuwzKjF-13" target="86nlOH5YFRba5CuwzKjF-15">
          <mxGeometry relative="1" as="geometry" />
        </mxCell>
        <mxCell id="86nlOH5YFRba5CuwzKjF-13" value="Retorna View Acesso Proibido" style="rounded=1;whiteSpace=wrap;html=1;" vertex="1" parent="1">
          <mxGeometry x="410" y="712" width="120" height="60" as="geometry" />
        </mxCell>
        <mxCell id="86nlOH5YFRba5CuwzKjF-15" value="" style="ellipse;html=1;shape=endState;fillColor=#000000;strokeColor=#000000;" vertex="1" parent="1">
          <mxGeometry x="575" y="105" width="30" height="30" as="geometry" />
        </mxCell>
        <mxCell id="86nlOH5YFRba5CuwzKjF-18" value="Sim" style="text;html=1;strokeColor=none;fillColor=none;align=center;verticalAlign=middle;whiteSpace=wrap;rounded=0;" vertex="1" parent="1">
          <mxGeometry x="335" y="250" width="60" height="30" as="geometry" />
        </mxCell>
        <mxCell id="86nlOH5YFRba5CuwzKjF-71" style="edgeStyle=orthogonalEdgeStyle;rounded=0;orthogonalLoop=1;jettySize=auto;html=1;" edge="1" parent="1" source="86nlOH5YFRba5CuwzKjF-20" target="86nlOH5YFRba5CuwzKjF-70">
          <mxGeometry relative="1" as="geometry" />
        </mxCell>
        <mxCell id="86nlOH5YFRba5CuwzKjF-20" value="Indicadores Financeiros são puxados do Banco" style="rounded=1;whiteSpace=wrap;html=1;" vertex="1" parent="1">
          <mxGeometry x="405" y="850" width="130" height="60" as="geometry" />
        </mxCell>
        <mxCell id="86nlOH5YFRba5CuwzKjF-26" style="edgeStyle=orthogonalEdgeStyle;rounded=0;orthogonalLoop=1;jettySize=auto;html=1;" edge="1" parent="1" target="86nlOH5YFRba5CuwzKjF-25">
          <mxGeometry relative="1" as="geometry">
            <mxPoint x="635" y="630" as="sourcePoint" />
          </mxGeometry>
        </mxCell>
        <mxCell id="86nlOH5YFRba5CuwzKjF-32" style="edgeStyle=orthogonalEdgeStyle;rounded=0;orthogonalLoop=1;jettySize=auto;html=1;" edge="1" parent="1" target="86nlOH5YFRba5CuwzKjF-29">
          <mxGeometry relative="1" as="geometry">
            <mxPoint x="970" y="630" as="sourcePoint" />
          </mxGeometry>
        </mxCell>
        <mxCell id="86nlOH5YFRba5CuwzKjF-33" style="edgeStyle=orthogonalEdgeStyle;rounded=0;orthogonalLoop=1;jettySize=auto;html=1;" edge="1" parent="1" target="86nlOH5YFRba5CuwzKjF-31">
          <mxGeometry relative="1" as="geometry">
            <mxPoint x="835" y="590" as="sourcePoint" />
          </mxGeometry>
        </mxCell>
        <mxCell id="86nlOH5YFRba5CuwzKjF-36" style="edgeStyle=orthogonalEdgeStyle;rounded=0;orthogonalLoop=1;jettySize=auto;html=1;" edge="1" parent="1" target="86nlOH5YFRba5CuwzKjF-35">
          <mxGeometry relative="1" as="geometry">
            <mxPoint x="1300" y="630" as="sourcePoint" />
          </mxGeometry>
        </mxCell>
        <mxCell id="86nlOH5YFRba5CuwzKjF-34" style="edgeStyle=orthogonalEdgeStyle;rounded=0;orthogonalLoop=1;jettySize=auto;html=1;" edge="1" parent="1" target="86nlOH5YFRba5CuwzKjF-29">
          <mxGeometry relative="1" as="geometry">
            <mxPoint x="895" y="520" as="sourcePoint" />
          </mxGeometry>
        </mxCell>
        <mxCell id="86nlOH5YFRba5CuwzKjF-38" style="edgeStyle=orthogonalEdgeStyle;rounded=0;orthogonalLoop=1;jettySize=auto;html=1;" edge="1" parent="1" target="86nlOH5YFRba5CuwzKjF-37">
          <mxGeometry relative="1" as="geometry">
            <mxPoint x="1470" y="600" as="sourcePoint" />
          </mxGeometry>
        </mxCell>
        <mxCell id="86nlOH5YFRba5CuwzKjF-45" style="edgeStyle=orthogonalEdgeStyle;rounded=0;orthogonalLoop=1;jettySize=auto;html=1;" edge="1" parent="1" target="86nlOH5YFRba5CuwzKjF-40">
          <mxGeometry relative="1" as="geometry">
            <mxPoint x="1470.0588235294117" y="470" as="sourcePoint" />
          </mxGeometry>
        </mxCell>
        <mxCell id="86nlOH5YFRba5CuwzKjF-44" style="edgeStyle=orthogonalEdgeStyle;rounded=0;orthogonalLoop=1;jettySize=auto;html=1;" edge="1" parent="1" target="86nlOH5YFRba5CuwzKjF-41">
          <mxGeometry relative="1" as="geometry">
            <mxPoint x="1470.0588235294117" y="380" as="sourcePoint" />
          </mxGeometry>
        </mxCell>
        <mxCell id="86nlOH5YFRba5CuwzKjF-43" style="edgeStyle=orthogonalEdgeStyle;rounded=0;orthogonalLoop=1;jettySize=auto;html=1;" edge="1" parent="1" target="86nlOH5YFRba5CuwzKjF-42">
          <mxGeometry relative="1" as="geometry">
            <mxPoint x="1470.0588235294117" y="290" as="sourcePoint" />
          </mxGeometry>
        </mxCell>
        <mxCell id="86nlOH5YFRba5CuwzKjF-47" value="Não" style="text;html=1;strokeColor=none;fillColor=none;align=center;verticalAlign=middle;whiteSpace=wrap;rounded=0;" vertex="1" parent="1">
          <mxGeometry x="270" y="589" width="60" height="30" as="geometry" />
        </mxCell>
        <mxCell id="86nlOH5YFRba5CuwzKjF-53" style="edgeStyle=orthogonalEdgeStyle;rounded=0;orthogonalLoop=1;jettySize=auto;html=1;" edge="1" parent="1" source="86nlOH5YFRba5CuwzKjF-60" target="86nlOH5YFRba5CuwzKjF-51">
          <mxGeometry relative="1" as="geometry" />
        </mxCell>
        <mxCell id="86nlOH5YFRba5CuwzKjF-57" style="edgeStyle=orthogonalEdgeStyle;rounded=0;orthogonalLoop=1;jettySize=auto;html=1;" edge="1" parent="1" source="86nlOH5YFRba5CuwzKjF-50" target="86nlOH5YFRba5CuwzKjF-55">
          <mxGeometry relative="1" as="geometry" />
        </mxCell>
        <mxCell id="86nlOH5YFRba5CuwzKjF-50" value="dataFim possui valor?" style="rhombus;whiteSpace=wrap;html=1;" vertex="1" parent="1">
          <mxGeometry x="141" y="360" width="120" height="80" as="geometry" />
        </mxCell>
        <mxCell id="86nlOH5YFRba5CuwzKjF-52" style="edgeStyle=orthogonalEdgeStyle;rounded=0;orthogonalLoop=1;jettySize=auto;html=1;entryX=0.5;entryY=0;entryDx=0;entryDy=0;" edge="1" parent="1" source="86nlOH5YFRba5CuwzKjF-63" target="86nlOH5YFRba5CuwzKjF-11">
          <mxGeometry relative="1" as="geometry" />
        </mxCell>
        <mxCell id="86nlOH5YFRba5CuwzKjF-58" style="edgeStyle=orthogonalEdgeStyle;rounded=0;orthogonalLoop=1;jettySize=auto;html=1;" edge="1" parent="1" source="86nlOH5YFRba5CuwzKjF-51" target="86nlOH5YFRba5CuwzKjF-56">
          <mxGeometry relative="1" as="geometry" />
        </mxCell>
        <mxCell id="86nlOH5YFRba5CuwzKjF-51" value="dataInicio possui valor?" style="rhombus;whiteSpace=wrap;html=1;" vertex="1" parent="1">
          <mxGeometry x="141" y="540" width="120" height="80" as="geometry" />
        </mxCell>
        <mxCell id="86nlOH5YFRba5CuwzKjF-62" style="edgeStyle=orthogonalEdgeStyle;rounded=0;orthogonalLoop=1;jettySize=auto;html=1;entryX=1;entryY=0.5;entryDx=0;entryDy=0;" edge="1" parent="1" source="86nlOH5YFRba5CuwzKjF-55" target="86nlOH5YFRba5CuwzKjF-60">
          <mxGeometry relative="1" as="geometry">
            <Array as="points">
              <mxPoint x="470" y="485" />
            </Array>
          </mxGeometry>
        </mxCell>
        <mxCell id="86nlOH5YFRba5CuwzKjF-55" value="Valor padrão para dataFim é atribuído" style="rounded=1;whiteSpace=wrap;html=1;" vertex="1" parent="1">
          <mxGeometry x="410" y="370" width="120" height="60" as="geometry" />
        </mxCell>
        <mxCell id="86nlOH5YFRba5CuwzKjF-65" style="edgeStyle=orthogonalEdgeStyle;rounded=0;orthogonalLoop=1;jettySize=auto;html=1;entryX=1;entryY=0.5;entryDx=0;entryDy=0;" edge="1" parent="1" source="86nlOH5YFRba5CuwzKjF-56" target="86nlOH5YFRba5CuwzKjF-63">
          <mxGeometry relative="1" as="geometry">
            <Array as="points">
              <mxPoint x="470" y="655" />
            </Array>
          </mxGeometry>
        </mxCell>
        <mxCell id="86nlOH5YFRba5CuwzKjF-56" value="Valor padrão para dataInício é atribuído" style="rounded=1;whiteSpace=wrap;html=1;" vertex="1" parent="1">
          <mxGeometry x="410" y="550" width="120" height="60" as="geometry" />
        </mxCell>
        <mxCell id="86nlOH5YFRba5CuwzKjF-59" value="Não" style="text;html=1;strokeColor=none;fillColor=none;align=center;verticalAlign=middle;whiteSpace=wrap;rounded=0;" vertex="1" parent="1">
          <mxGeometry x="270" y="409" width="60" height="30" as="geometry" />
        </mxCell>
        <mxCell id="86nlOH5YFRba5CuwzKjF-61" value="" style="edgeStyle=orthogonalEdgeStyle;rounded=0;orthogonalLoop=1;jettySize=auto;html=1;" edge="1" parent="1" source="86nlOH5YFRba5CuwzKjF-50" target="86nlOH5YFRba5CuwzKjF-60">
          <mxGeometry relative="1" as="geometry">
            <mxPoint x="210" y="440" as="sourcePoint" />
            <mxPoint x="210" y="540" as="targetPoint" />
          </mxGeometry>
        </mxCell>
        <mxCell id="86nlOH5YFRba5CuwzKjF-60" value="" style="rhombus;whiteSpace=wrap;html=1;" vertex="1" parent="1">
          <mxGeometry x="186" y="470" width="30" height="30" as="geometry" />
        </mxCell>
        <mxCell id="86nlOH5YFRba5CuwzKjF-64" value="" style="edgeStyle=orthogonalEdgeStyle;rounded=0;orthogonalLoop=1;jettySize=auto;html=1;entryX=0.5;entryY=0;entryDx=0;entryDy=0;" edge="1" parent="1" source="86nlOH5YFRba5CuwzKjF-51" target="86nlOH5YFRba5CuwzKjF-63">
          <mxGeometry relative="1" as="geometry">
            <mxPoint x="210" y="620" as="sourcePoint" />
            <mxPoint x="210" y="702" as="targetPoint" />
          </mxGeometry>
        </mxCell>
        <mxCell id="86nlOH5YFRba5CuwzKjF-63" value="" style="rhombus;whiteSpace=wrap;html=1;" vertex="1" parent="1">
          <mxGeometry x="186" y="640" width="30" height="30" as="geometry" />
        </mxCell>
        <mxCell id="86nlOH5YFRba5CuwzKjF-66" value="Sim" style="text;html=1;strokeColor=none;fillColor=none;align=center;verticalAlign=middle;whiteSpace=wrap;rounded=0;" vertex="1" parent="1">
          <mxGeometry x="141" y="439" width="60" height="30" as="geometry" />
        </mxCell>
        <mxCell id="86nlOH5YFRba5CuwzKjF-67" value="Sim" style="text;html=1;strokeColor=none;fillColor=none;align=center;verticalAlign=middle;whiteSpace=wrap;rounded=0;" vertex="1" parent="1">
          <mxGeometry x="141" y="619" width="60" height="30" as="geometry" />
        </mxCell>
        <mxCell id="86nlOH5YFRba5CuwzKjF-69" value="Sim" style="text;html=1;strokeColor=none;fillColor=none;align=center;verticalAlign=middle;whiteSpace=wrap;rounded=0;" vertex="1" parent="1">
          <mxGeometry x="126" y="782" width="60" height="30" as="geometry" />
        </mxCell>
        <mxCell id="86nlOH5YFRba5CuwzKjF-73" style="edgeStyle=orthogonalEdgeStyle;rounded=0;orthogonalLoop=1;jettySize=auto;html=1;" edge="1" parent="1" source="86nlOH5YFRba5CuwzKjF-70" target="86nlOH5YFRba5CuwzKjF-72">
          <mxGeometry relative="1" as="geometry" />
        </mxCell>
        <mxCell id="86nlOH5YFRba5CuwzKjF-70" value="Valores de despesa são atribuídos" style="rounded=1;whiteSpace=wrap;html=1;" vertex="1" parent="1">
          <mxGeometry x="660" y="850" width="130" height="60" as="geometry" />
        </mxCell>
        <mxCell id="86nlOH5YFRba5CuwzKjF-76" style="edgeStyle=orthogonalEdgeStyle;rounded=0;orthogonalLoop=1;jettySize=auto;html=1;entryX=0.5;entryY=1;entryDx=0;entryDy=0;" edge="1" parent="1" source="86nlOH5YFRba5CuwzKjF-72" target="86nlOH5YFRba5CuwzKjF-74">
          <mxGeometry relative="1" as="geometry" />
        </mxCell>
        <mxCell id="86nlOH5YFRba5CuwzKjF-78" style="edgeStyle=orthogonalEdgeStyle;rounded=0;orthogonalLoop=1;jettySize=auto;html=1;" edge="1" parent="1" source="86nlOH5YFRba5CuwzKjF-72" target="86nlOH5YFRba5CuwzKjF-75">
          <mxGeometry relative="1" as="geometry" />
        </mxCell>
        <mxCell id="86nlOH5YFRba5CuwzKjF-72" value="_prospeccoes.Count é igual a 0?" style="rhombus;whiteSpace=wrap;html=1;" vertex="1" parent="1">
          <mxGeometry x="840" y="840" width="175" height="80" as="geometry" />
        </mxCell>
        <mxCell id="86nlOH5YFRba5CuwzKjF-77" style="edgeStyle=orthogonalEdgeStyle;rounded=0;orthogonalLoop=1;jettySize=auto;html=1;" edge="1" parent="1" source="86nlOH5YFRba5CuwzKjF-74" target="86nlOH5YFRba5CuwzKjF-75">
          <mxGeometry relative="1" as="geometry" />
        </mxCell>
        <mxCell id="86nlOH5YFRba5CuwzKjF-74" value="As prospecções são obtidas pelo administrador de dados" style="rounded=1;whiteSpace=wrap;html=1;" vertex="1" parent="1">
          <mxGeometry x="868" y="712" width="120" height="60" as="geometry" />
        </mxCell>
        <mxCell id="86nlOH5YFRba5CuwzKjF-82" style="edgeStyle=orthogonalEdgeStyle;rounded=0;orthogonalLoop=1;jettySize=auto;html=1;" edge="1" parent="1" source="86nlOH5YFRba5CuwzKjF-75" target="86nlOH5YFRba5CuwzKjF-81">
          <mxGeometry relative="1" as="geometry" />
        </mxCell>
        <mxCell id="86nlOH5YFRba5CuwzKjF-75" value="As participações totais dos pesquisadores são obtidas" style="rounded=1;whiteSpace=wrap;html=1;" vertex="1" parent="1">
          <mxGeometry x="1131" y="850" width="120" height="60" as="geometry" />
        </mxCell>
        <mxCell id="86nlOH5YFRba5CuwzKjF-79" value="Não" style="text;html=1;strokeColor=none;fillColor=none;align=center;verticalAlign=middle;whiteSpace=wrap;rounded=0;" vertex="1" parent="1">
          <mxGeometry x="1015" y="880" width="60" height="30" as="geometry" />
        </mxCell>
        <mxCell id="86nlOH5YFRba5CuwzKjF-80" value="&lt;div&gt;Sim&lt;/div&gt;" style="text;html=1;strokeColor=none;fillColor=none;align=center;verticalAlign=middle;whiteSpace=wrap;rounded=0;" vertex="1" parent="1">
          <mxGeometry x="925" y="810" width="60" height="30" as="geometry" />
        </mxCell>
        <mxCell id="86nlOH5YFRba5CuwzKjF-84" style="edgeStyle=orthogonalEdgeStyle;rounded=0;orthogonalLoop=1;jettySize=auto;html=1;" edge="1" parent="1" source="86nlOH5YFRba5CuwzKjF-81" target="86nlOH5YFRba5CuwzKjF-83">
          <mxGeometry relative="1" as="geometry" />
        </mxCell>
        <mxCell id="86nlOH5YFRba5CuwzKjF-81" value="A participacação do pesquisador é filtrada das participações totais" style="rounded=1;whiteSpace=wrap;html=1;" vertex="1" parent="1">
          <mxGeometry x="1310" y="850" width="120" height="60" as="geometry" />
        </mxCell>
        <mxCell id="86nlOH5YFRba5CuwzKjF-86" style="edgeStyle=orthogonalEdgeStyle;rounded=0;orthogonalLoop=1;jettySize=auto;html=1;" edge="1" parent="1" source="86nlOH5YFRba5CuwzKjF-83" target="86nlOH5YFRba5CuwzKjF-85">
          <mxGeometry relative="1" as="geometry" />
        </mxCell>
        <mxCell id="86nlOH5YFRba5CuwzKjF-83" value="Os rankings médios da participação são atribuidos" style="rounded=1;whiteSpace=wrap;html=1;" vertex="1" parent="1">
          <mxGeometry x="1310" y="712" width="120" height="60" as="geometry" />
        </mxCell>
        <mxCell id="86nlOH5YFRba5CuwzKjF-88" style="edgeStyle=orthogonalEdgeStyle;rounded=0;orthogonalLoop=1;jettySize=auto;html=1;" edge="1" parent="1" source="86nlOH5YFRba5CuwzKjF-85" target="86nlOH5YFRba5CuwzKjF-87">
          <mxGeometry relative="1" as="geometry" />
        </mxCell>
        <mxCell id="86nlOH5YFRba5CuwzKjF-85" value="Os dados do gráfico de prospecções são computados" style="rounded=1;whiteSpace=wrap;html=1;" vertex="1" parent="1">
          <mxGeometry x="1310" y="610" width="120" height="60" as="geometry" />
        </mxCell>
        <mxCell id="86nlOH5YFRba5CuwzKjF-93" style="edgeStyle=orthogonalEdgeStyle;rounded=0;orthogonalLoop=1;jettySize=auto;html=1;" edge="1" parent="1" source="86nlOH5YFRba5CuwzKjF-87" target="86nlOH5YFRba5CuwzKjF-91">
          <mxGeometry relative="1" as="geometry" />
        </mxCell>
        <mxCell id="86nlOH5YFRba5CuwzKjF-94" style="edgeStyle=orthogonalEdgeStyle;rounded=0;orthogonalLoop=1;jettySize=auto;html=1;" edge="1" parent="1" source="86nlOH5YFRba5CuwzKjF-87" target="86nlOH5YFRba5CuwzKjF-92">
          <mxGeometry relative="1" as="geometry" />
        </mxCell>
        <mxCell id="86nlOH5YFRba5CuwzKjF-87" value="A participação do pesquisador foi encontrada?" style="rhombus;whiteSpace=wrap;html=1;" vertex="1" parent="1">
          <mxGeometry x="1255" y="480" width="230" height="80" as="geometry" />
        </mxCell>
        <mxCell id="86nlOH5YFRba5CuwzKjF-19" value="ViewbagizarUsuario" style="rounded=1;whiteSpace=wrap;html=1;" vertex="1" parent="1">
          <mxGeometry x="141" y="850" width="120" height="60" as="geometry" />
        </mxCell>
        <mxCell id="86nlOH5YFRba5CuwzKjF-98" style="edgeStyle=orthogonalEdgeStyle;rounded=0;orthogonalLoop=1;jettySize=auto;html=1;entryX=1;entryY=0.5;entryDx=0;entryDy=0;" edge="1" parent="1" source="86nlOH5YFRba5CuwzKjF-91" target="86nlOH5YFRba5CuwzKjF-15">
          <mxGeometry relative="1" as="geometry">
            <Array as="points">
              <mxPoint x="1090" y="120" />
            </Array>
          </mxGeometry>
        </mxCell>
        <mxCell id="86nlOH5YFRba5CuwzKjF-91" value="Retorna-se nulo" style="rounded=1;whiteSpace=wrap;html=1;" vertex="1" parent="1">
          <mxGeometry x="1030" y="490" width="120" height="60" as="geometry" />
        </mxCell>
        <mxCell id="86nlOH5YFRba5CuwzKjF-99" style="edgeStyle=orthogonalEdgeStyle;rounded=0;orthogonalLoop=1;jettySize=auto;html=1;entryX=1;entryY=0.5;entryDx=0;entryDy=0;" edge="1" parent="1" source="86nlOH5YFRba5CuwzKjF-92" target="86nlOH5YFRba5CuwzKjF-15">
          <mxGeometry relative="1" as="geometry">
            <Array as="points">
              <mxPoint x="1370" y="120" />
            </Array>
          </mxGeometry>
        </mxCell>
        <mxCell id="86nlOH5YFRba5CuwzKjF-92" value="Retorna-se a participação" style="rounded=1;whiteSpace=wrap;html=1;" vertex="1" parent="1">
          <mxGeometry x="1310" y="370" width="120" height="60" as="geometry" />
        </mxCell>
        <mxCell id="86nlOH5YFRba5CuwzKjF-95" value="Não" style="text;html=1;strokeColor=none;fillColor=none;align=center;verticalAlign=middle;whiteSpace=wrap;rounded=0;" vertex="1" parent="1">
          <mxGeometry x="1100" y="460" width="60" height="30" as="geometry" />
        </mxCell>
        <mxCell id="86nlOH5YFRba5CuwzKjF-96" value="Sim" style="text;html=1;strokeColor=none;fillColor=none;align=center;verticalAlign=middle;whiteSpace=wrap;rounded=0;" vertex="1" parent="1">
          <mxGeometry x="1310" y="440" width="60" height="30" as="geometry" />
        </mxCell>
      </root>
    </mxGraphModel>
  </diagram>
</mxfile>
